<svg width="88" height="70" viewBox="0 0 88 70" fill="none" xmlns="http://www.w3.org/2000/svg">
<path d="M74.625 33.9062V34.3574L84.1543 24.8281C87.1484 21.834 87.1484 16.9941 84.1543 14L73.4766 3.33594C70.4824 0.341797 65.6426 0.341797 62.6484 3.33594L57.166 8.81836C56.7969 8.77734 56.4141 8.75 56.0312 8.75H40.7188C35.6465 8.75 31.4766 12.5781 30.9297 17.5H30.875V33.9062C30.875 36.9277 33.3223 39.375 36.3438 39.375C39.3652 39.375 41.8125 36.9277 41.8125 33.9062V24.0625V24.0488V21.875H44H62.5938C62.5938 21.875 62.5938 21.875 62.6074 21.875H63.6875C69.7305 21.875 74.625 26.7695 74.625 32.8125V33.9062ZM46.1875 26.25V33.9062C46.1875 39.3477 41.7852 43.75 36.3438 43.75C30.9023 43.75 26.5 39.3477 26.5 33.9062V17.6914C21.5918 18.5391 17.5039 22.1074 16.1094 27.0156L13.8535 34.8906L3.8457 44.8984C0.851562 47.8926 0.851562 52.7324 3.8457 55.7266L14.5234 66.4043C17.5176 69.3984 22.3574 69.3984 25.3516 66.4043L30.5059 61.25C30.6289 61.25 30.752 61.2637 30.875 61.2637H52.75C56.373 61.2637 59.3125 58.3242 59.3125 54.7012C59.3125 53.9355 59.1758 53.1973 58.9434 52.5137H59.3125C62.9355 52.5137 65.875 49.5742 65.875 45.9512C65.875 44.2012 65.1914 42.6152 64.0703 41.4395C67.584 40.7559 70.2363 37.666 70.25 33.9473V33.8926C70.2363 29.6816 66.8184 26.2637 62.5938 26.2637H46.1875V26.25Z" fill="#D33F1E"/>
</svg>
