<svg width="70" height="70" viewBox="0 0 70 70" fill="none" xmlns="http://www.w3.org/2000/svg">
<g clip-path="url(#clip0_15_23)">
<path d="M56.875 17.5V4.375C56.875 1.95918 54.9158 0 52.5 0H4.375C1.95918 0 0 1.95918 0 4.375V17.5C0 19.9158 1.95918 21.875 4.375 21.875H52.5C54.9158 21.875 56.875 19.9158 56.875 17.5ZM61.25 8.75V26.25C61.25 28.6658 59.2908 30.625 56.875 30.625H35C30.167 30.625 26.25 34.542 26.25 39.375V43.75C23.8342 43.75 21.875 45.7092 21.875 48.125V65.625C21.875 68.0408 23.8342 70 26.25 70H35C37.4158 70 39.375 68.0408 39.375 65.625V48.125C39.375 45.7092 37.4158 43.75 35 43.75V39.375H56.875C64.1238 39.375 70 33.4988 70 26.25V17.5C70 12.667 66.083 8.75 61.25 8.75Z" fill="#D33F1E"/>
</g>
<defs>
<clipPath id="clip0_15_23">
<rect width="70" height="70" fill="white"/>
</clipPath>
</defs>
</svg>
