<svg width="70" height="70" viewBox="0 0 70 70" fill="none" xmlns="http://www.w3.org/2000/svg">
<g clip-path="url(#clip0_15_62)">
<path d="M32.9219 0.656231C34.2207 1.4492 35 2.8574 35 4.37498V14.2187H47.168C47.6602 12.332 49.3691 10.9375 51.4062 10.9375H63.4375C67.0605 10.9375 70 13.8769 70 17.5C70 21.123 67.0605 24.0625 63.4375 24.0625H51.4062C49.3691 24.0625 47.6602 22.6679 47.168 20.7812H35V30.625C35 32.1426 34.2207 33.5508 32.9219 34.3437C31.623 35.1367 30.0234 35.2187 28.6699 34.5351L2.41992 21.4101C0.929688 20.6719 0 19.1543 0 17.5C0 15.8457 0.929688 14.3281 2.41992 13.5898L28.6699 0.464825C30.0234 -0.218769 31.6367 -0.136738 32.9219 0.656231ZM39.375 35C39.375 32.5801 41.3301 30.625 43.75 30.625H65.625C68.0449 30.625 70 32.5801 70 35V43.75C70 46.1699 68.0449 48.125 65.625 48.125H43.75C41.3301 48.125 39.375 46.1699 39.375 43.75V35ZM4.375 52.5H17.5C19.9199 52.5 21.875 54.4551 21.875 56.875V65.625C21.875 68.0449 19.9199 70 17.5 70H4.375C1.95508 70 0 68.0449 0 65.625V56.875C0 54.4551 1.95508 52.5 4.375 52.5ZM30.625 52.5H65.625C68.0449 52.5 70 54.4551 70 56.875V65.625C70 68.0449 68.0449 70 65.625 70H30.625C28.2051 70 26.25 68.0449 26.25 65.625V56.875C26.25 54.4551 28.2051 52.5 30.625 52.5Z" fill="#D33F1E"/>
</g>
<defs>
<clipPath id="clip0_15_62">
<rect width="70" height="70" fill="white"/>
</clipPath>
</defs>
</svg>
